<svg xmlns="http://www.w3.org/2000/svg" version="1.1" id="Layer_2" x="0" y="0" viewBox="0 0 190.4 37.6"><style id="style2">.st1{fill:#f06351}</style><path d="M6.1 20.7l.1-2.3c6.7-.9 13.4-1.4 20.2-1.3l-.1 1.8s2.9-1.3 6-1.8A16.7 16.7 0 0016.7 6.3C8.4 6.3 1.5 12.4.2 20.4l5.9.3zm21.1 3.5c-1.2 1.3-1.4 1.2-1.4 3.5v9.2a16.6 16.6 0 007.1-17 40.3 40.3 0 00-5.7 4.3zM6.4 25.7l-5.2-1.8-1.2-.3c.2 6 3.7 11.3 8.7 14L6.4 25.7z" id="path4" fill="#fdc305"/><path class="st1" d="M26.3 17.1C26.4 8.6 24.9.6 24.9.6s-.2-1.2-.9-.2c-.7 1.1-1.2 3.9-1.2 3.9-7.4-.4-12.8.3-12.8.3C9.2 2 7.9.8 7.2 1c-.7.3-.7 3.4-.7 3.4l-.4 14.1c6.7-1 13.5-1.4 20.2-1.4z" id="path6"/><path d="M12.4 14l1.4.9c.4.2.6.4.6.6 0 .2-.3.3-.6.3s-.9-.1-1-.3H14c.1.1-1.3-1-1.6-1.5zm7.5.1l-1.1 1.3c0 .1-.2.3.2.3l1.2-.3c.1-.1.1-.2-.1-.2l-1 .1.8-1.2s.1-.1 0 0zm-3.1 6.1s.8-.4 1.1-1c.3-.7 0-.9-.4-1-.5-.1-1.3 0-1.7.3-.4.4-.3.7-.1 1l1.1.7z" id="path8"/><path class="st1" d="M16.3 21.5s-.2.4-.5.6c-.2.2-.6.4-1 .4-.6 0-1.1-.2-1.5-.4l-.5-.4-.4-.3s.7 4.1 2.6 4.7c1.8.6 2.1-.7 2.2-1.1 0-.3 0-2.1-.8-3.2.1-.4 0-.2-.1-.3z" id="path10"/><path d="M14.7 22.6c-1.3 0-2.3-1.4-2.3-1.4V21h.2s1 1.3 2.1 1.3c.6 0 1.1-.3 1.6-1l.1-.2.1.2s.4.8 1 .8c.5 0 1.1-.4 1.6-1.3 0-.1.1-.1.2 0 .1 0 .1.1 0 .2-.6 1-1.3 1.4-1.9 1.4-.6 0-.9-.5-1.1-.8-.4.7-1 1-1.6 1z" id="path12"/><path class="st1" d="M26.2 18.9s-2.5 2.2-5.1 5.2-5.2 4.9-5.2 4.9c-.2-.5-1.6-1.5-1.6-1.5s-3.1-2.1-5.2-3.8c-1.2-1-2.3-2.2-3.1-3l-2-.1c4.7 7 12 8.8 12 8.8.9-.1 3.3-1.9 5.1-3.3 1.8-1.4 4.8-4.5 5.9-5.9.6-.7.9-1.4 1.1-2l-1.9.7z" id="path14"/><g id="g18" fill="#000" fill-opacity="1" fill-rule="nonzero" stroke="none" stroke-width="1"><path id="path843" d="M91.2 26.7c-.8-1-1.2-2.4-1.2-4.3V16c0-1.8.4-3.3 1.2-4.3.8-1 2.2-1.5 4-1.5 1.9 0 3.2.5 4 1.3.7.8 1 2 1 3.8v1.5h-3.5v-1.7-1.2c0-.4-.4-.7-.5-.9-.2-.3-.5-.3-1-.3-.6 0-1 .2-1.3.5-.2.5-.2 1.1-.2 1.9v8.1c0 .8.1 1.4.4 1.9.2.3.6.6 1.2.6s1-.3 1.2-.6l.2-1.9v-1.8h3.5v1.4c0 1.6-.3 3-1 3.9-.8 1-2.1 1.4-4 1.4-2 .1-3.3-.4-4-1.4zM105 10.4h4.1l3.5 17.6h-3.4l-.7-4h-2.9l-.7 4h-3.5zm3.1 11.5l-1.1-7-1 7zm7-8.9h-2.8v-2.6h9V13h-2.6v15H115V13z"/><path id="path845" d="M128.7 10.4h6.9v1.8h-4.4V18h3.5v1.7h-3.5v6.5h4.4V28h-7zm9 0h1.6l5 11.7V10.5h2.1V28h-1.6l-5-12v12h-2.2zm11.6 0h7v1.8h-4.5V18h3.6v1.7h-3.6v6.5h4.4V28h-6.9zm9 0h3.6c1.8 0 3 .4 4 1.1.8.7 1.3 2 1.3 3.5 0 2.3-.8 3.7-2.2 4.2l2.5 8.8H165l-2.4-8.3h-1.9V28h-2.6zm3.5 7.6c1 0 1.7-.3 2.2-.6.5-.5.8-1.2.8-2.2 0-.8-.1-1.3-.3-1.7-.1-.4-.5-.7-.8-1l-1.8-.1h-1V18h.9zm8.7 8.7c-.7-1-1-2.4-1-4.4v-6a8 8 0 01.5-3.3c.1-.8.7-1.5 1.4-2a5 5 0 012.9-.7c1.6 0 2.9.4 3.5 1.2.8.9 1 2 1 3.9v.7h-2.3v-.6l-.1-2c-.1-.4-.4-.7-.6-1-.4-.1-.9-.3-1.4-.3-.8 0-1.3.2-1.6.5-.3.3-.6.7-.6 1.3L172 16v6.5c0 1.3 0 2.3.4 3 .4.5 1 .7 2 .7s1.5-.3 1.9-1c.4-.5.5-1.5.5-3v-1.2h-2.4v-1.7h4.6v8.7h-1.7l-.1-2a3.3 3.3 0 01-3.3 2.3c-1.5-.2-2.8-.7-3.5-1.7zm13.7-5l-3.9-11.3h2.3l2.8 8.5 2.6-8.5h2.4l-3.8 11.3V28h-2.4z"/></g></svg>